<svg xmlns="http://www.w3.org/2000/svg" version="1.1" xmlns:xlink="http://www.w3.org/1999/xlink" xmlns:svgjs="http://svgjs.dev/svgjs" width="128" height="128" viewBox="0 0 128 128"><g transform="matrix(0.8046875,0,0,0.8046875,12.354840686274514,5.471963205645174)"><svg viewBox="0 0 136 155" data-background-color="#ffbe79" preserveAspectRatio="xMidYMid meet" height="145" width="128" xmlns="http://www.w3.org/2000/svg" xmlns:xlink="http://www.w3.org/1999/xlink"><g id="tight-bounds" transform="matrix(1,0,0,1,0.19166666666666288,0.2499999999999858)"><svg viewBox="0 0 135.61666666666667 154.5" height="154.5" width="135.61666666666667"><g><svg viewBox="0 0 135.61666666666667 154.5" height="154.5" width="135.61666666666667"><g><svg viewBox="0 0 135.61666666666667 154.5" height="154.5" width="135.61666666666667"><g id="textblocktransform"><svg viewBox="0 0 135.61666666666667 154.5" height="154.5" width="135.61666666666667" id="textblock"><g><svg viewBox="0 0 135.61666666666667 154.5" height="154.5" width="135.61666666666667"><g transform="matrix(1,0,0,1,0,0)"><svg width="135.61666666666667" viewBox="1.2 -35.5 31.599999999999998 36" height="154.5" data-palette-color="#374151"><path d="M16.95 0.5L16.95 0.5Q11.7 0.5 8.22-0.98 4.75-2.45 3.03-4.83 1.3-7.2 1.2-9.85L1.2-9.85Q1.2-10.3 1.5-10.6 1.8-10.9 2.25-10.9L2.25-10.9 10.2-10.9Q10.9-10.9 11.3-10.68 11.7-10.45 12.15-10.05L12.15-10.05Q12.6-9.5 13.2-9.03 13.8-8.55 14.75-8.28 15.7-8 16.95-8L16.95-8Q19.25-8 20.5-8.63 21.75-9.25 21.75-10.35L21.75-10.35Q21.75-11.2 21.08-11.75 20.4-12.3 18.8-12.75 17.2-13.2 14.45-13.7L14.45-13.7Q10.6-14.35 7.8-15.63 5-16.9 3.53-19.07 2.05-21.25 2.05-24.45L2.05-24.45Q2.05-27.7 3.88-30.2 5.7-32.7 8.97-34.1 12.25-35.5 16.6-35.5L16.6-35.5Q20.2-35.5 22.98-34.55 25.75-33.6 27.65-32.08 29.55-30.55 30.55-28.8 31.55-27.05 31.6-25.45L31.6-25.45Q31.6-25 31.28-24.68 30.95-24.35 30.55-24.35L30.55-24.35 22.2-24.35Q21.6-24.35 21.2-24.55 20.8-24.75 20.4-25.2L20.4-25.2Q20.15-25.9 19.15-26.45 18.15-27 16.6-27L16.6-27Q14.9-27 14-26.43 13.1-25.85 13.1-24.75L13.1-24.75Q13.1-24 13.65-23.45 14.2-22.9 15.6-22.48 17-22.05 19.5-21.55L19.5-21.55Q24.25-20.85 27.18-19.55 30.1-18.25 31.45-16.15 32.8-14.05 32.8-10.9L32.8-10.9Q32.8-7.35 30.75-4.8 28.7-2.25 25.13-0.88 21.55 0.5 16.95 0.5Z" opacity="1" transform="matrix(1,0,0,1,0,0)" fill="#374151" class="undefined-text-0" data-fill-palette-color="primary" id="text-0"></path></svg></g></svg></g></svg></g></svg></g><g></g></svg></g><defs></defs></svg><rect width="135.61666666666667" height="154.5" fill="none" stroke="none" visibility="hidden"></rect></g></svg></g></svg>